<?xml version="1.0" standalone="no"?>
<!DOCTYPE svg PUBLIC "-//W3C//DTD SVG 20010904//EN"
 "http://www.w3.org/TR/2001/REC-SVG-20010904/DTD/svg10.dtd">
<svg version="1.0" xmlns="http://www.w3.org/2000/svg"
 width="3705pt" height="765pt" viewBox="0 0 3705 765"
 preserveAspectRatio="xMidYMid meet">
<metadata>
sharkive | logo.svg
CC0 Public Domain
based on Noto Sans Mono (OFL)
</metadata>
<g transform="translate(0,765) scale(0.1,-0.1)"
fill="#000000" stroke="none">
<path d="M25033 6900 c-244 -31 -401 -163 -458 -385 -20 -77 -20 -279 0 -363
30 -127 105 -238 206 -303 168 -107 483 -119 675 -25 183 91 271 239 281 475
14 313 -118 513 -381 581 -90 23 -229 31 -323 20z"/>
<path d="M5280 3980 l0 -2850 470 0 469 0 4 1158 c3 1128 3 1160 24 1287 75
452 224 704 495 841 246 124 613 118 837 -13 191 -113 297 -311 330 -621 7
-70 11 -513 11 -1377 l0 -1275 470 0 470 0 0 1364 c0 851 -4 1412 -10 1492
-45 556 -266 926 -675 1131 -367 185 -941 205 -1330 49 -225 -91 -428 -262
-558 -468 -36 -57 -46 -67 -71 -68 l-29 0 7 88 c17 229 26 672 26 1360 l0 752
-470 0 -470 0 0 -2850z"/>
<path d="M18880 3980 l0 -2850 465 0 465 0 0 633 1 632 280 235 c154 129 291
243 303 252 l23 18 604 -885 604 -885 508 0 509 0 -18 28 c-10 15 -374 540
-809 1167 -435 627 -794 1145 -798 1152 -4 6 301 353 758 862 421 468 765 853
765 856 0 3 -243 5 -539 5 l-539 0 -593 -676 c-692 -789 -906 -1046 -1049
-1259 -29 -44 -55 -74 -58 -67 -2 8 3 109 12 225 33 429 36 612 36 2000 l0
1407 -465 0 -465 0 0 -2850z"/>
<path d="M2380 5264 c-411 -39 -714 -129 -935 -277 -140 -94 -289 -271 -348
-412 -66 -159 -96 -375 -77 -568 25 -263 101 -420 287 -598 181 -173 473 -328
1093 -579 457 -186 588 -251 682 -342 74 -72 93 -122 93 -243 0 -89 -3 -106
-28 -157 -68 -139 -223 -218 -488 -249 -128 -15 -465 -6 -629 16 -295 40 -626
131 -943 261 -59 24 -110 44 -112 44 -3 0 -5 -193 -5 -429 l0 -429 88 -32
c283 -103 616 -172 967 -201 185 -15 670 -7 831 15 471 62 786 194 1007 421
182 187 267 425 267 750 0 320 -72 523 -257 721 -178 192 -472 345 -1202 629
-447 173 -530 214 -622 306 -65 65 -93 137 -94 239 0 99 20 155 78 212 170
170 742 193 1302 52 114 -28 395 -118 467 -148 13 -6 38 49 158 350 77 196
137 360 133 364 -16 16 -283 110 -420 149 -336 95 -594 131 -973 135 -151 2
-295 2 -320 0z"/>
<path d="M11265 5264 c-281 -27 -407 -47 -580 -90 -196 -50 -433 -133 -617
-218 l-77 -35 28 -63 c64 -141 264 -574 272 -589 7 -14 25 -9 141 37 224 89
460 154 688 189 145 22 430 30 561 16 377 -41 597 -197 664 -472 23 -91 33
-387 14 -393 -8 -2 -228 -9 -489 -15 -261 -7 -533 -16 -605 -22 -370 -29 -668
-103 -907 -225 -325 -166 -512 -407 -590 -759 -25 -117 -36 -422 -19 -560 60
-474 340 -813 776 -940 179 -52 251 -60 515 -60 215 0 259 3 358 23 150 30
273 72 409 137 165 79 280 161 428 308 71 70 136 126 144 125 10 -2 34 -82 80
-263 l66 -260 358 -3 358 -2 -4 1497 -3 1498 -22 97 c-60 264 -161 456 -318
611 -221 216 -512 345 -921 407 -107 17 -197 22 -403 25 -146 2 -283 1 -305
-1z m1102 -2461 c-5 -279 -19 -358 -82 -488 -162 -333 -554 -530 -1015 -512
-161 6 -259 29 -379 88 -183 90 -261 231 -261 468 1 375 276 596 825 661 93
12 452 24 779 28 l138 2 -5 -247z"/>
<path d="M17157 5254 c-257 -40 -434 -126 -619 -303 -129 -122 -248 -275 -328
-418 -17 -31 -30 -43 -47 -43 -13 0 -23 3 -23 8 -1 4 -29 162 -63 352 l-63
345 -837 3 -837 2 0 -328 0 -329 475 -59 475 -59 0 -1261 0 -1261 -207 -33
c-115 -18 -365 -58 -558 -89 l-350 -56 -3 -298 -2 -297 1580 0 1580 0 0 298 0
297 -548 88 c-301 49 -551 92 -555 97 -5 4 -7 322 -4 706 4 661 6 705 26 813
55 296 176 537 355 709 203 195 427 272 751 259 160 -7 287 -31 435 -83 56
-19 104 -33 106 -31 12 12 244 841 237 847 -15 15 -141 58 -245 84 -211 53
-537 71 -731 40z"/>
<path d="M33865 5258 c-222 -22 -477 -94 -658 -185 -545 -272 -866 -758 -975
-1476 -25 -164 -24 -684 1 -852 72 -484 251 -855 548 -1140 116 -111 178 -159
313 -239 229 -138 523 -236 846 -281 153 -22 586 -31 750 -16 400 37 755 127
1011 256 l49 25 0 385 0 384 -67 -26 c-261 -101 -585 -196 -797 -232 -512 -89
-1016 -19 -1321 183 -267 179 -403 428 -441 809 l-6 67 1386 0 1386 0 0 335
c0 360 -7 460 -46 653 -139 695 -571 1159 -1220 1311 -200 46 -522 63 -759 39z
m530 -737 c366 -97 609 -418 632 -833 l6 -108 -941 0 c-517 0 -943 3 -945 8
-8 14 23 168 54 267 99 318 314 547 604 644 123 41 196 50 365 46 107 -2 166
-9 225 -24z"/>
<path d="M23480 4872 l0 -328 598 -58 c328 -32 603 -60 610 -62 9 -3 12 -264
12 -1262 l0 -1258 -487 -63 c-269 -35 -580 -75 -693 -90 l-205 -27 -3 -297 -2
-297 1790 0 1790 0 0 298 0 297 -630 89 -630 89 0 1648 0 1649 -1075 0 -1075
0 0 -328z"/>
<path d="M27522 5188 c3 -7 344 -923 759 -2036 l753 -2022 514 2 514 3 750
2010 c412 1106 751 2020 754 2033 l6 22 -486 0 c-452 0 -486 -1 -494 -17 -13
-25 -770 -2362 -826 -2548 -85 -286 -109 -371 -151 -539 -23 -94 -46 -171 -52
-173 -7 -3 -22 43 -38 109 -76 323 -126 480 -617 1961 l-400 1207 -495 0
c-392 0 -494 -3 -491 -12z"/>
</g>
</svg>
